<svg id="Ebene_1" data-name="Ebene 1" xmlns="http://www.w3.org/2000/svg" viewBox="0 0 640.25 480.63"><defs><style>.cls-1{fill:none;stroke:#0026ee;stroke-width:0.25px;}.cls-1,.cls-2{stroke-miterlimit:10;}.cls-2{fill:#fff;stroke:#ff2727;}</style></defs><title>mathpaper</title><rect class="cls-1" x="0.13" y="0.5" width="640" height="480"/><line class="cls-1" x1="0.13" y1="471.09" x2="640.13" y2="471.09"/><line class="cls-1" x1="0.13" y1="461.68" x2="640.13" y2="461.68"/><line class="cls-1" x1="0.13" y1="452.26" x2="640.13" y2="452.26"/><line class="cls-1" x1="0.13" y1="442.85" x2="640.13" y2="442.85"/><line class="cls-1" x1="0.13" y1="433.44" x2="640.13" y2="433.44"/><line class="cls-1" x1="0.13" y1="424.03" x2="640.13" y2="424.03"/><line class="cls-1" x1="0.13" y1="414.62" x2="640.13" y2="414.62"/><line class="cls-1" x1="0.13" y1="405.21" x2="640.13" y2="405.21"/><line class="cls-1" x1="0.13" y1="395.79" x2="640.13" y2="395.79"/><line class="cls-1" x1="0.13" y1="386.38" x2="640.13" y2="386.38"/><line class="cls-1" x1="0.13" y1="376.97" x2="640.13" y2="376.97"/><line class="cls-1" x1="0.13" y1="367.56" x2="640.13" y2="367.56"/><line class="cls-1" x1="0.13" y1="358.15" x2="640.13" y2="358.15"/><line class="cls-1" x1="0.13" y1="348.74" x2="640.13" y2="348.74"/><line class="cls-1" x1="0.13" y1="339.32" x2="640.13" y2="339.32"/><line class="cls-1" x1="0.13" y1="329.91" x2="640.13" y2="329.91"/><line class="cls-1" x1="0.13" y1="320.5" x2="640.13" y2="320.5"/><line class="cls-1" x1="0.13" y1="311.09" x2="640.13" y2="311.09"/><line class="cls-1" x1="0.13" y1="301.68" x2="640.13" y2="301.68"/><line class="cls-1" x1="0.13" y1="292.26" x2="640.13" y2="292.26"/><line class="cls-1" x1="0.13" y1="282.85" x2="640.13" y2="282.85"/><line class="cls-1" x1="0.13" y1="273.44" x2="640.13" y2="273.44"/><line class="cls-1" x1="0.13" y1="264.03" x2="640.13" y2="264.03"/><line class="cls-1" x1="0.13" y1="254.62" x2="640.13" y2="254.62"/><line class="cls-1" x1="0.13" y1="245.21" x2="640.13" y2="245.21"/><line class="cls-1" x1="0.13" y1="235.79" x2="640.13" y2="235.79"/><line class="cls-1" x1="0.13" y1="226.38" x2="640.13" y2="226.38"/><line class="cls-1" x1="0.13" y1="216.97" x2="640.13" y2="216.97"/><line class="cls-1" x1="0.13" y1="207.56" x2="640.13" y2="207.56"/><line class="cls-1" x1="0.13" y1="198.15" x2="640.13" y2="198.15"/><line class="cls-1" x1="0.13" y1="188.74" x2="640.13" y2="188.74"/><line class="cls-1" x1="0.13" y1="179.32" x2="640.13" y2="179.32"/><line class="cls-1" x1="0.13" y1="169.91" x2="640.13" y2="169.91"/><line class="cls-1" x1="0.13" y1="160.5" x2="640.13" y2="160.5"/><line class="cls-1" x1="0.13" y1="151.09" x2="640.13" y2="151.09"/><line class="cls-1" x1="0.13" y1="141.68" x2="640.13" y2="141.68"/><line class="cls-1" x1="0.13" y1="132.26" x2="640.13" y2="132.26"/><line class="cls-1" x1="0.13" y1="122.85" x2="640.13" y2="122.85"/><line class="cls-1" x1="0.13" y1="113.44" x2="640.13" y2="113.44"/><line class="cls-1" x1="0.13" y1="104.03" x2="640.13" y2="104.03"/><line class="cls-1" x1="0.13" y1="94.62" x2="640.13" y2="94.62"/><line class="cls-1" x1="0.13" y1="85.21" x2="640.13" y2="85.21"/><line class="cls-1" x1="0.13" y1="75.79" x2="640.13" y2="75.79"/><line class="cls-1" x1="0.13" y1="66.38" x2="640.13" y2="66.38"/><line class="cls-1" x1="0.13" y1="56.97" x2="640.13" y2="56.97"/><line class="cls-1" x1="0.13" y1="47.56" x2="640.13" y2="47.56"/><line class="cls-1" x1="0.13" y1="38.15" x2="640.13" y2="38.15"/><line class="cls-1" x1="0.13" y1="28.74" x2="640.13" y2="28.74"/><line class="cls-1" x1="0.13" y1="19.32" x2="640.13" y2="19.32"/><line class="cls-1" x1="0.13" y1="9.91" x2="640.13" y2="9.91"/><line class="cls-1" x1="630.57" y1="0.5" x2="630.57" y2="480.5"/><line class="cls-1" x1="621.02" y1="0.5" x2="621.02" y2="480.5"/><line class="cls-1" x1="611.47" y1="0.5" x2="611.47" y2="480.5"/><line class="cls-1" x1="601.92" y1="0.5" x2="601.92" y2="480.5"/><line class="cls-1" x1="592.36" y1="0.5" x2="592.36" y2="480.5"/><line class="cls-1" x1="582.81" y1="0.5" x2="582.81" y2="480.5"/><line class="cls-1" x1="573.26" y1="0.5" x2="573.26" y2="480.5"/><line class="cls-1" x1="563.71" y1="0.5" x2="563.71" y2="480.5"/><line class="cls-1" x1="554.15" y1="0.5" x2="554.15" y2="480.5"/><line class="cls-1" x1="544.6" y1="0.5" x2="544.6" y2="480.5"/><line class="cls-1" x1="535.05" y1="0.5" x2="535.05" y2="480.5"/><line class="cls-1" x1="525.5" y1="0.5" x2="525.5" y2="480.5"/><line class="cls-1" x1="515.95" y1="0.5" x2="515.95" y2="480.5"/><line class="cls-1" x1="506.39" y1="0.5" x2="506.39" y2="480.5"/><line class="cls-1" x1="496.84" y1="0.5" x2="496.84" y2="480.5"/><line class="cls-1" x1="487.29" y1="0.5" x2="487.29" y2="480.5"/><line class="cls-1" x1="477.74" y1="0.5" x2="477.74" y2="480.5"/><line class="cls-1" x1="468.18" y1="0.5" x2="468.18" y2="480.5"/><line class="cls-1" x1="458.63" y1="0.5" x2="458.63" y2="480.5"/><line class="cls-1" x1="449.08" y1="0.5" x2="449.08" y2="480.5"/><line class="cls-1" x1="439.53" y1="0.5" x2="439.53" y2="480.5"/><line class="cls-1" x1="429.98" y1="0.5" x2="429.98" y2="480.5"/><line class="cls-1" x1="420.42" y1="0.5" x2="420.42" y2="480.5"/><line class="cls-1" x1="410.87" y1="0.5" x2="410.87" y2="480.5"/><line class="cls-1" x1="401.32" y1="0.5" x2="401.32" y2="480.5"/><line class="cls-1" x1="391.77" y1="0.5" x2="391.77" y2="480.5"/><line class="cls-1" x1="382.21" y1="0.5" x2="382.21" y2="480.5"/><line class="cls-1" x1="372.66" y1="0.5" x2="372.66" y2="480.5"/><line class="cls-1" x1="363.11" y1="0.5" x2="363.11" y2="480.5"/><line class="cls-1" x1="353.56" y1="0.5" x2="353.56" y2="480.5"/><line class="cls-1" x1="344.01" y1="0.5" x2="344.01" y2="480.5"/><line class="cls-1" x1="334.45" y1="0.5" x2="334.45" y2="480.5"/><line class="cls-1" x1="324.9" y1="0.5" x2="324.9" y2="480.5"/><line class="cls-1" x1="315.35" y1="0.5" x2="315.35" y2="480.5"/><line class="cls-1" x1="305.8" y1="0.5" x2="305.8" y2="480.5"/><line class="cls-1" x1="296.24" y1="0.5" x2="296.24" y2="480.5"/><line class="cls-1" x1="286.69" y1="0.5" x2="286.69" y2="480.5"/><line class="cls-1" x1="277.14" y1="0.5" x2="277.14" y2="480.5"/><line class="cls-1" x1="267.59" y1="0.5" x2="267.59" y2="480.5"/><line class="cls-1" x1="258.04" y1="0.5" x2="258.04" y2="480.5"/><line class="cls-1" x1="248.48" y1="0.5" x2="248.48" y2="480.5"/><line class="cls-1" x1="238.93" y1="0.5" x2="238.93" y2="480.5"/><line class="cls-1" x1="229.38" y1="0.5" x2="229.38" y2="480.5"/><line class="cls-1" x1="219.83" y1="0.5" x2="219.83" y2="480.5"/><line class="cls-1" x1="210.27" y1="0.5" x2="210.27" y2="480.5"/><line class="cls-1" x1="200.72" y1="0.5" x2="200.72" y2="480.5"/><line class="cls-1" x1="191.17" y1="0.5" x2="191.17" y2="480.5"/><line class="cls-1" x1="181.62" y1="0.5" x2="181.62" y2="480.5"/><line class="cls-1" x1="172.07" y1="0.5" x2="172.07" y2="480.5"/><line class="cls-1" x1="162.51" y1="0.5" x2="162.51" y2="480.5"/><line class="cls-1" x1="152.96" y1="0.5" x2="152.96" y2="480.5"/><line class="cls-1" x1="143.41" y1="0.5" x2="143.41" y2="480.5"/><line class="cls-1" x1="133.86" y1="0.5" x2="133.86" y2="480.5"/><line class="cls-1" x1="124.3" y1="0.5" x2="124.3" y2="480.5"/><line class="cls-1" x1="114.75" y1="0.5" x2="114.75" y2="480.5"/><line class="cls-1" x1="105.2" y1="0.5" x2="105.2" y2="480.5"/><line class="cls-1" x1="95.65" y1="0.5" x2="95.65" y2="480.5"/><line class="cls-1" x1="86.1" y1="0.5" x2="86.1" y2="480.5"/><line class="cls-1" x1="76.54" y1="0.5" x2="76.54" y2="480.5"/><line class="cls-1" x1="66.99" y1="0.5" x2="66.99" y2="480.5"/><line class="cls-1" x1="57.44" y1="0.5" x2="57.44" y2="480.5"/><line class="cls-1" x1="47.89" y1="0.5" x2="47.89" y2="480.5"/><line class="cls-1" x1="38.33" y1="0.5" x2="38.33" y2="480.5"/><line class="cls-1" x1="28.78" y1="0.5" x2="28.78" y2="480.5"/><line class="cls-1" x1="19.23" y1="0.5" x2="19.23" y2="480.5"/><line class="cls-1" x1="9.68" y1="0.5" x2="9.68" y2="480.5"/><line class="cls-2" x1="66.63" x2="66.63" y2="480"/></svg>